<svg width="19" height="15" viewBox="0 0 19 15" fill="none" xmlns="http://www.w3.org/2000/svg">
<path d="M4.79779 14.3508H0V0.0599401H4.79779C5.74993 0.0335341 6.69743 0.201835 7.58223 0.554528C8.46703 0.907222 9.27049 1.43688 9.94338 2.11104C10.6157 2.77274 11.1453 3.56514 11.4996 4.43937C11.8539 5.31361 12.0253 6.25116 12.0034 7.1942C12.0284 8.14097 11.8584 9.08276 11.5041 9.96105C11.1497 10.8393 10.6184 11.6354 9.94338 12.2997C9.27049 12.9738 8.46703 13.5035 7.58223 13.8562C6.69743 14.2089 5.74993 14.3772 4.79779 14.3508ZM1.14148 1.12116V13.2895H4.77996C5.5819 13.311 6.3797 13.1673 7.12376 12.8674C7.86782 12.5675 8.54224 12.1177 9.1051 11.5461C9.67588 10.9775 10.1242 10.298 10.4225 9.54957C10.7208 8.80113 10.8628 7.99956 10.8396 7.1942C10.8596 6.39324 10.7161 5.5966 10.4179 4.85295C10.1197 4.10931 9.67298 3.43426 9.1051 2.86906C8.54262 2.29662 7.86837 1.84604 7.12429 1.54534C6.38021 1.24464 5.58222 1.10026 4.77996 1.12116H1.14148Z" fill="#202023"/>
<path d="M16.1948 10.6231C15.8258 10.6276 15.4665 10.7415 15.1623 10.9503C14.8581 11.1592 14.6228 11.4537 14.4861 11.7964C14.3494 12.1392 14.3175 12.5148 14.3945 12.8756C14.4715 13.2365 14.6539 13.5664 14.9185 13.8236C15.1832 14.0807 15.5182 14.2535 15.8811 14.3201C16.2441 14.3866 16.6186 14.344 16.9573 14.1975C17.2959 14.051 17.5835 13.8073 17.7835 13.4972C17.9836 13.1871 18.0871 12.8247 18.0809 12.4557C18.0774 12.2115 18.0259 11.9704 17.9292 11.7462C17.8325 11.5219 17.6926 11.3189 17.5175 11.1487C17.3423 10.9786 17.1353 10.8446 16.9084 10.7544C16.6815 10.6642 16.439 10.6196 16.1948 10.6231ZM16.2438 13.7444C15.994 13.7496 15.7481 13.6806 15.5376 13.546C15.327 13.4113 15.1611 13.2172 15.061 12.9882C14.9609 12.7592 14.931 12.5056 14.9752 12.2596C15.0194 12.0136 15.1357 11.7863 15.3093 11.6064C15.4828 11.4266 15.7059 11.3024 15.9502 11.2495C16.1944 11.1966 16.4489 11.2174 16.6813 11.3094C16.9138 11.4013 17.1136 11.5602 17.2556 11.7658C17.3976 11.9715 17.4754 12.2147 17.479 12.4647C17.4825 12.6302 17.4533 12.7947 17.3931 12.9489C17.3329 13.1031 17.2428 13.2439 17.1281 13.3632C17.0133 13.4826 16.8762 13.578 16.7244 13.6442C16.5727 13.7104 16.4094 13.7459 16.2438 13.7488V13.7444Z" fill="#202023"/>
</svg>
