<svg width="150" height="20" viewBox="0 0 150 20" fill="none" xmlns="http://www.w3.org/2000/svg">
<path d="M4.79779 14.7592H0V0.468368H4.79779C5.7498 0.44301 6.697 0.611793 7.58165 0.964427C8.4663 1.31706 9.26987 1.84616 9.94338 2.51947C10.6173 3.18272 11.1479 3.97729 11.5023 4.85397C11.8566 5.73064 12.0272 6.67073 12.0034 7.61601C12.0274 8.56064 11.8569 9.50012 11.5025 10.3761C11.1481 11.2521 10.6174 12.0458 9.94338 12.7081C9.27049 13.3822 8.46703 13.9119 7.58223 14.2646C6.69743 14.6173 5.74993 14.7856 4.79779 14.7592ZM1.14148 1.52959V13.698H4.77996C5.5819 13.7194 6.3797 13.5758 7.12376 13.2758C7.86782 12.9759 8.54224 12.5262 9.1051 11.9545C9.67421 11.3874 10.1216 10.7102 10.4198 9.96417C10.7181 9.21817 10.8609 8.41914 10.8396 7.61601C10.8615 6.81281 10.7189 6.01363 10.4206 5.26755C10.1223 4.52147 9.67464 3.84425 9.1051 3.27748C8.54262 2.70505 7.86837 2.25447 7.12429 1.95377C6.38021 1.65307 5.58222 1.50868 4.77996 1.52959H1.14148Z" fill="#2A2A2A"/>
<path d="M14.3711 1.91751C14.2989 1.84588 14.2419 1.76036 14.2036 1.6661C14.1652 1.57184 14.1464 1.4708 14.1482 1.36906C14.1463 1.26665 14.1651 1.16491 14.2034 1.06992C14.2417 0.974924 14.2988 0.88862 14.3711 0.816159C14.5198 0.673371 14.7179 0.593628 14.9241 0.593628C15.1302 0.593628 15.3283 0.673371 15.477 0.816159C15.5493 0.88862 15.6064 0.974924 15.6447 1.06992C15.683 1.16491 15.7018 1.26665 15.6999 1.36906C15.7004 1.52427 15.6545 1.67609 15.5683 1.80512C15.482 1.93415 15.3592 2.03452 15.2156 2.09339C15.072 2.15227 14.9141 2.16699 14.7621 2.13566C14.6101 2.10433 14.4709 2.02838 14.3622 1.91751H14.3711ZM15.4948 14.7592H14.3711V4.50368H15.4948V14.7592Z" fill="#2A2A2A"/>
<path d="M23.0927 4.28967C23.8082 4.2703 24.5196 4.40388 25.1794 4.68146C25.8391 4.95905 26.432 5.37426 26.9185 5.89933C27.4235 6.43748 27.8105 7.07521 28.0547 7.77166C28.2989 8.4681 28.3948 9.20788 28.3364 9.94357H18.9459C19.0052 11.0335 19.4847 12.058 20.2836 12.8017C20.6741 13.1762 21.1347 13.4698 21.6389 13.6656C22.1432 13.8615 22.6812 13.9559 23.222 13.9432C24.0466 13.9576 24.8569 13.7263 25.5496 13.2788C26.2233 12.8471 26.7551 12.2269 27.079 11.4953L28.0912 11.8609C27.6857 12.7865 27.0155 13.5715 26.1649 14.1171C25.2786 14.6899 24.2414 14.9849 23.1864 14.9643C22.479 14.9814 21.7756 14.8547 21.1187 14.5919C20.4618 14.329 19.8651 13.9355 19.3648 13.4352C18.8645 12.9349 18.471 12.3382 18.2081 11.6813C17.9453 11.0244 17.8186 10.3209 17.8357 9.61361C17.8159 8.90936 17.9385 8.20836 18.1959 7.55254C18.4533 6.89673 18.8403 6.29957 19.3339 5.79678C19.8221 5.29922 20.4082 4.90837 21.0552 4.64896C21.7022 4.38954 22.396 4.2672 23.0927 4.28967ZM23.0927 5.32859C22.0835 5.30837 21.1045 5.67351 20.355 6.34968C19.5961 7.02525 19.1095 7.95417 18.9861 8.96261H27.1994C27.0828 7.96402 26.6074 7.04179 25.8617 6.36752C25.1041 5.68466 24.1122 5.32048 23.0927 5.35089V5.32859Z" fill="#2A2A2A"/>
<path d="M39.6843 7.51347V4.49032H40.808V13.7203C40.8255 14.4251 40.698 15.126 40.4334 15.7795C40.1688 16.4331 39.7727 17.0252 39.2697 17.5193C38.6556 18.136 37.901 18.5945 37.0706 18.8553C36.2403 19.1161 35.3591 19.1715 34.5026 19.0167C33.6462 18.8619 32.8401 18.5015 32.1536 17.9665C31.4671 17.4316 30.9208 16.738 30.5614 15.9453L31.6003 15.4994C31.9203 16.2391 32.4486 16.8697 33.1208 17.3142C33.9438 17.8415 34.9216 18.0736 35.8938 17.9723C36.8659 17.871 37.7749 17.4424 38.4715 16.7568C38.8679 16.3585 39.1796 15.8842 39.388 15.3624C39.5965 14.8406 39.6972 14.282 39.6843 13.7203V11.7004C39.341 12.6447 38.719 13.4626 37.9008 14.0458C36.9342 14.7077 35.7636 15.0039 34.5985 14.8813C33.4334 14.7588 32.3501 14.2255 31.5424 13.3769C30.5864 12.3471 30.0738 10.9825 30.1155 9.57794C30.0752 8.17893 30.5878 6.82039 31.5424 5.79679C32.3566 4.94996 33.4452 4.42004 34.614 4.30161C35.7827 4.18319 36.9556 4.48396 37.9231 5.15024C38.7355 5.74186 39.3496 6.56581 39.6843 7.51347ZM35.3815 13.863C35.9515 13.8799 36.5189 13.7807 37.0494 13.5714C37.5798 13.3622 38.0622 13.0472 38.4671 12.6457C38.8686 12.2482 39.184 11.7723 39.3934 11.2475C39.6029 10.7228 39.7019 10.1605 39.6843 9.59578C39.6997 9.0336 39.5991 8.47428 39.3889 7.95265C39.1787 7.43101 38.8634 6.95822 38.4626 6.56372C38.058 6.16334 37.5763 5.84937 37.0466 5.64088C36.5169 5.43239 35.9504 5.33373 35.3815 5.35089C34.8339 5.34048 34.29 5.44367 33.7843 5.65395C33.2786 5.86423 32.8219 6.17704 32.4431 6.57264C32.0487 6.96918 31.7387 7.44147 31.5318 7.96104C31.3249 8.48061 31.2254 9.0367 31.2392 9.59578C31.224 10.1577 31.3228 10.7169 31.5297 11.2395C31.7367 11.7622 32.0474 12.2375 32.4431 12.6368C32.8217 13.033 33.2782 13.3464 33.7839 13.5575C34.2896 13.7685 34.8336 13.8725 35.3815 13.863Z" fill="#2A2A2A"/>
<path d="M43.1623 9.63591C43.1623 8.21682 43.726 6.85585 44.7295 5.8524C45.7329 4.84895 47.0939 4.28522 48.513 4.28522C49.9321 4.28522 51.293 4.84895 52.2965 5.8524C53.2999 6.85585 53.8637 8.21682 53.8637 9.63591C53.8804 10.341 53.7521 11.0421 53.4867 11.6956C53.2213 12.3491 52.8245 12.9411 52.3209 13.4349C51.2902 14.4171 49.9211 14.965 48.4974 14.965C47.0737 14.965 45.7045 14.4171 44.6739 13.4349C44.1763 12.9381 43.7856 12.3448 43.5257 11.6915C43.2657 11.0383 43.1421 10.3387 43.1623 9.63591ZM45.4809 6.58602C45.0819 6.98534 44.7682 7.46162 44.559 7.98592C44.3497 8.51022 44.2492 9.07158 44.2636 9.63591C44.2489 10.199 44.3493 10.7591 44.5586 11.282C44.7679 11.8049 45.0817 12.2795 45.4809 12.6769C46.2864 13.4632 47.3673 13.9033 48.4929 13.9033C49.6185 13.9033 50.6995 13.4632 51.5049 12.6769C51.9027 12.2787 52.2153 11.8038 52.4238 11.281C52.6323 10.7582 52.7323 10.1985 52.7177 9.63591C52.7319 9.072 52.6318 8.51105 52.4234 7.98688C52.2149 7.46271 51.9025 6.98618 51.5049 6.58602C50.7023 5.79443 49.6202 5.35063 48.4929 5.35063C47.3656 5.35063 46.2836 5.79443 45.4809 6.58602Z" fill="#2A2A2A"/>
<path d="M65.1893 14.7592H56.0441V0.468384H58.3092V12.7393H65.1893V14.7592Z" fill="#2A2A2A"/>
<path d="M71.093 4.12467C72.197 4.076 73.282 4.42396 74.1518 5.10563C74.5562 5.4507 74.8753 5.88463 75.0841 6.3735C75.293 6.86236 75.3859 7.39292 75.3557 7.92367V14.7592H73.2109V11.9857C72.5718 13.9714 71.2862 14.9643 69.354 14.9643C68.5353 14.9882 67.7382 14.6997 67.1245 14.1572C66.8299 13.8919 66.5973 13.5651 66.4432 13.1998C66.2891 12.8345 66.2172 12.4398 66.2327 12.0437C66.2052 11.6011 66.2897 11.1587 66.4783 10.7574C66.6669 10.356 66.9535 10.0087 67.3118 9.74736C68.1367 9.20248 69.0863 8.87571 70.0719 8.79761L72.0918 8.59696C72.8542 8.52562 73.2332 8.18674 73.2332 7.57587C73.2407 7.34272 73.1919 7.11122 73.091 6.9009C72.9901 6.69058 72.8401 6.50763 72.6536 6.36751C72.211 6.05286 71.6755 5.89585 71.1331 5.92161C70.5528 5.90151 69.9821 6.07396 69.51 6.41209C69.0524 6.75909 68.7485 7.27108 68.6629 7.83895L66.536 7.33063C66.6228 6.85793 66.8032 6.40735 67.0666 6.00535C67.33 5.60335 67.6711 5.25804 68.0698 4.9897C68.9653 4.39889 70.0205 4.09696 71.093 4.12467ZM70.0317 13.2298C70.4438 13.2357 70.853 13.1599 71.2357 13.0069C71.6183 12.8538 71.9669 12.6265 72.2612 12.338C72.5546 12.0763 72.7894 11.7554 72.95 11.3966C73.1106 11.0377 73.1935 10.6489 73.1931 10.2557V9.69831C73.0326 9.97031 72.6357 10.1442 72.0115 10.2066L70.0317 10.4519C69.5868 10.4902 69.1596 10.6439 68.7922 10.8978C68.6464 11.0131 68.53 11.1613 68.4525 11.3302C68.375 11.4992 68.3386 11.6841 68.3463 11.8698C68.3393 12.0567 68.3759 12.2427 68.4533 12.413C68.5307 12.5832 68.6467 12.7331 68.7922 12.8508C69.1492 13.1165 69.5872 13.2504 70.0317 13.2298Z" fill="#2A2A2A"/>
<path d="M77.5406 10.4341V4.32983H79.6853V10.4341C79.6712 10.7762 79.7295 11.1175 79.8562 11.4356C79.983 11.7537 80.1755 12.0414 80.421 12.2801C80.9377 12.7338 81.6017 12.984 82.2893 12.984C82.9769 12.984 83.6409 12.7338 84.1576 12.2801C84.4031 12.0414 84.5956 11.7537 84.7224 11.4356C84.8491 11.1175 84.9074 10.7762 84.8933 10.4341V4.32983H87.038V10.4341C87.0592 11.0419 86.9509 11.6472 86.7202 12.2099C86.4896 12.7726 86.142 13.2799 85.7004 13.698C84.7518 14.5153 83.5414 14.9648 82.2893 14.9648C81.0372 14.9648 79.8268 14.5153 78.8782 13.698C78.4366 13.2799 78.089 12.7726 77.8584 12.2099C77.6277 11.6472 77.5194 11.0419 77.5406 10.4341Z" fill="#2A2A2A"/>
<path d="M91.5058 4.32982V7.08543C91.8506 5.84585 92.3857 5.00906 93.111 4.57506C93.4811 4.35699 93.8912 4.21542 94.3171 4.15874C94.7429 4.10206 95.1758 4.13143 95.5901 4.2451V6.28728C95.1158 6.12348 94.6115 6.06535 94.1124 6.11696C93.6133 6.16856 93.1315 6.32866 92.7007 6.58603C92.3165 6.82373 92.0031 7.16004 91.7929 7.55997C91.5827 7.9599 91.4836 8.40884 91.5058 8.86008V14.7592H89.3655V4.32982H91.5058Z" fill="#2A2A2A"/>
<path d="M101.329 4.1247C102.099 4.09873 102.866 4.24541 103.573 4.554C104.28 4.8626 104.908 5.32531 105.413 5.90827C105.93 6.49621 106.313 7.18967 106.534 7.94045C106.756 8.69122 106.812 9.48128 106.697 10.2557H98.0604C98.1879 11.0575 98.6013 11.7861 99.2242 12.3068C99.8601 12.8361 100.667 13.1165 101.494 13.096C102.137 13.1051 102.77 12.9303 103.317 12.5922C103.851 12.2696 104.286 11.8069 104.575 11.2545L106.358 12.0482C105.905 12.9245 105.22 13.66 104.379 14.1751C103.486 14.7139 102.46 14.989 101.418 14.9688C100.69 14.9877 99.9666 14.86 99.2895 14.5934C98.6123 14.3269 97.9957 13.9268 97.4763 13.4171C96.9574 12.9201 96.5479 12.3205 96.2738 11.6564C95.9997 10.9923 95.8671 10.2783 95.8844 9.56012C95.873 8.84241 96.006 8.12972 96.2757 7.4645C96.5453 6.79927 96.9461 6.1951 97.454 5.68795C97.962 5.18081 98.5668 4.78105 99.2325 4.51249C99.8982 4.24393 100.611 4.11205 101.329 4.1247ZM101.329 5.97961C100.58 5.96798 99.8521 6.22594 99.2777 6.70641C98.6972 7.19409 98.2917 7.85789 98.1228 8.59699H104.535C104.381 7.85202 103.983 7.18002 103.402 6.68858C102.818 6.21122 102.083 5.9596 101.329 5.97961Z" fill="#2A2A2A"/>
<path d="M114.639 4.12469C115.183 4.10502 115.724 4.20459 116.226 4.41641C116.727 4.62823 117.176 4.94718 117.541 5.35089C118.303 6.2257 118.703 7.35759 118.661 8.51672V14.7592H116.52V8.86006C116.531 8.49345 116.468 8.1284 116.335 7.78671C116.202 7.44502 116.001 7.13371 115.744 6.87138C115.496 6.61433 115.197 6.41151 114.866 6.27569C114.535 6.13986 114.18 6.07397 113.823 6.08215C113.438 6.06728 113.054 6.12944 112.693 6.26496C112.332 6.40049 112.002 6.60666 111.723 6.87138C111.453 7.12616 111.241 7.4351 111.099 7.77786C110.958 8.12062 110.891 8.48945 110.902 8.86006V14.7592H108.762V4.3298H110.902V7.00515C111.154 6.17772 111.65 5.44565 112.325 4.905C112.983 4.38638 113.8 4.11078 114.639 4.12469Z" fill="#2A2A2A"/>
<path d="M121.889 6.24271H119.659V4.32983H121.889V0.94106L124.029 0.263306V4.32983H126.972V6.24271H124.029V11.045C124.009 11.2941 124.037 11.5448 124.114 11.7828C124.19 12.0207 124.313 12.2412 124.475 12.4317C124.661 12.5931 124.878 12.7157 125.112 12.7923C125.347 12.8689 125.594 12.8979 125.839 12.8776H126.985V14.7592H125.839C124.493 14.7592 123.5 14.4471 122.861 13.8229C122.219 13.1942 121.902 12.2355 121.902 10.9424L121.889 6.24271Z" fill="#2A2A2A"/>
<path d="M129.103 2.26533C128.976 2.14516 128.875 1.9999 128.807 1.83873C128.739 1.67757 128.704 1.50399 128.707 1.32896C128.704 1.15322 128.738 0.978873 128.806 0.816933C128.875 0.654993 128.976 0.508982 129.103 0.388129C129.228 0.264152 129.377 0.166066 129.54 0.0994974C129.703 0.0329286 129.877 -0.000814288 130.053 0.000203539C130.228 -0.00291816 130.402 0.029898 130.564 0.0966225C130.726 0.163347 130.872 0.262561 130.994 0.388129C131.121 0.511112 131.221 0.658979 131.287 0.822428C131.354 0.985877 131.386 1.16137 131.382 1.33788C131.385 1.51218 131.352 1.68521 131.285 1.84626C131.218 2.00731 131.119 2.15297 130.994 2.27425C130.872 2.39982 130.726 2.49903 130.564 2.56576C130.402 2.63248 130.228 2.6653 130.053 2.66217C129.876 2.66202 129.702 2.62688 129.539 2.55876C129.376 2.49065 129.228 2.39092 129.103 2.26533ZM131.114 14.7503H128.974V4.32981H131.114V14.7503Z" fill="#2A2A2A"/>
<path d="M139.403 4.12469C139.947 4.10502 140.489 4.20459 140.991 4.41641C141.492 4.62823 141.941 4.94718 142.306 5.35089C143.07 6.22455 143.47 7.35725 143.425 8.51672V14.7592H141.285V8.86006C141.297 8.49333 141.235 8.12798 141.101 7.78614C140.968 7.44431 140.766 7.1331 140.509 6.87138C140.261 6.61433 139.962 6.41151 139.631 6.27569C139.3 6.13986 138.945 6.07397 138.587 6.08215C138.203 6.06728 137.818 6.12944 137.458 6.26496C137.097 6.40049 136.767 6.60666 136.487 6.87138C136.218 7.12616 136.006 7.4351 135.864 7.77786C135.723 8.12062 135.656 8.48945 135.667 8.86006V14.7592H133.527V4.3298H135.667V7.00515C135.918 6.17772 136.414 5.44565 137.089 4.905C137.748 4.38638 138.565 4.11078 139.403 4.12469Z" fill="#2A2A2A"/>
<path d="M147.657 11.036C147.288 11.0405 146.929 11.1544 146.624 11.3633C146.32 11.5721 146.085 11.8666 145.948 12.2093C145.812 12.5521 145.78 12.9277 145.857 13.2886C145.934 13.6494 146.116 13.9793 146.381 14.2365C146.645 14.4936 146.98 14.6664 147.343 14.733C147.706 14.7995 148.081 14.7569 148.419 14.6104C148.758 14.4639 149.046 14.2202 149.246 13.9101C149.446 13.6001 149.549 13.2376 149.543 12.8686C149.54 12.6243 149.489 12.3829 149.393 12.1584C149.296 11.9339 149.156 11.7306 148.981 11.5603C148.806 11.39 148.598 11.256 148.371 11.1661C148.144 11.0761 147.901 11.0319 147.657 11.036ZM147.71 14.1573C147.459 14.167 147.21 14.1014 146.996 13.9689C146.781 13.8365 146.611 13.6431 146.508 13.4135C146.404 13.1839 146.371 12.9286 146.413 12.6802C146.455 12.4318 146.57 12.2017 146.744 12.0191C146.918 11.8366 147.142 11.71 147.388 11.6555C147.634 11.601 147.89 11.6212 148.125 11.7133C148.359 11.8055 148.561 11.9655 148.704 12.1729C148.847 12.3803 148.925 12.6256 148.928 12.8776C148.934 13.2085 148.81 13.5285 148.582 13.7687C148.354 14.009 148.041 14.1501 147.71 14.1617V14.1573Z" fill="#2A2A2A"/>
</svg>
