<svg width="94" height="34" viewBox="0 0 94 34" fill="none" xmlns="http://www.w3.org/2000/svg">
<path d="M4.79779 14.4109H0V0.120121H4.79779C5.74993 0.0937148 6.69743 0.262015 7.58223 0.614709C8.46703 0.967402 9.27049 1.49706 9.94338 2.17122C10.6157 2.83292 11.1453 3.62532 11.4996 4.49956C11.8539 5.37379 12.0253 6.31134 12.0034 7.25438C12.0284 8.20115 11.8584 9.14294 11.5041 10.0212C11.1497 10.8995 10.6184 11.6956 9.94338 12.3598C9.27049 13.034 8.46703 13.5637 7.58223 13.9164C6.69743 14.269 5.74993 14.4373 4.79779 14.4109ZM1.14148 1.18134V13.3497H4.77996C5.5819 13.3712 6.3797 13.2275 7.12376 12.9276C7.86782 12.6277 8.54224 12.1779 9.1051 11.6063C9.67588 11.0376 10.1242 10.3582 10.4225 9.60975C10.7208 8.86131 10.8628 8.05974 10.8396 7.25438C10.8596 6.45342 10.7161 5.65678 10.4179 4.91313C10.1197 4.16949 9.67298 3.49444 9.1051 2.92924C8.54262 2.3568 7.86837 1.90622 7.12429 1.60552C6.38021 1.30482 5.58222 1.16044 4.77996 1.18134H1.14148Z" fill="#202023"/>
<path d="M14.371 1.56926C14.2979 1.49643 14.2404 1.40943 14.202 1.31359C14.1637 1.21774 14.1453 1.11508 14.1481 1.01189C14.1463 0.910159 14.1651 0.809117 14.2035 0.714858C14.2418 0.620599 14.2988 0.535076 14.371 0.463446C14.518 0.317499 14.7168 0.235596 14.9239 0.235596C15.1311 0.235596 15.3298 0.317499 15.4769 0.463446C15.5491 0.535076 15.6061 0.620599 15.6444 0.714858C15.6828 0.809117 15.7016 0.910159 15.6998 1.01189C15.7019 1.11434 15.6833 1.21615 15.645 1.31118C15.6066 1.40621 15.5495 1.49249 15.4769 1.5648C15.3282 1.70759 15.1301 1.78733 14.9239 1.78733C14.7178 1.78733 14.5197 1.70759 14.371 1.5648V1.56926ZM15.4947 14.4109H14.371V4.13313H15.4947V14.4109Z" fill="#202023"/>
<path d="M23.0927 3.93692C23.8085 3.91841 24.5201 4.05282 25.1798 4.33116C25.8395 4.60951 26.4323 5.02539 26.9185 5.55105C27.424 6.08888 27.8113 6.72657 28.0555 7.4231C28.2997 8.11962 28.3954 8.85955 28.3364 9.59529H18.9459C19.0052 10.6852 19.4847 11.7097 20.2836 12.4534C20.6741 12.8279 21.1347 13.1215 21.6389 13.3174C22.1432 13.5133 22.6812 13.6076 23.222 13.5949C24.0464 13.6072 24.856 13.3761 25.5496 12.9306C26.2224 12.4979 26.754 11.8779 27.079 11.147L28.1001 11.5126C27.6934 12.4375 27.0235 13.2222 26.1738 13.7688C25.285 14.3433 24.2445 14.6384 23.1864 14.616C22.481 14.633 21.7794 14.507 21.124 14.2455C20.4686 13.984 19.873 13.5925 19.373 13.0946C18.873 12.5967 18.479 12.0027 18.2148 11.3484C17.9506 10.6941 17.8216 9.9931 17.8357 9.28762C17.8171 8.58274 17.941 7.88136 18.2 7.22551C18.459 6.56966 18.8477 5.97284 19.3428 5.47079C19.8278 4.96974 20.4115 4.57473 21.057 4.31072C21.7024 4.0467 22.3956 3.91943 23.0927 3.93692ZM23.0927 4.98031C22.0835 4.96008 21.1045 5.32522 20.355 6.0014C19.5955 6.67646 19.1087 7.60564 18.9861 8.61432H27.1994C27.0828 7.61574 26.6075 6.69351 25.8617 6.01924C25.1076 5.32828 24.1153 4.95598 23.0927 4.98031Z" fill="#202023"/>
<path d="M39.6843 7.16518V4.13312H40.808V13.3631C40.8249 14.0672 40.6971 14.7672 40.4325 15.4199C40.1679 16.0726 39.7721 16.6641 39.2697 17.1576C38.7687 17.6598 38.1708 18.0548 37.5123 18.3185C36.8538 18.5823 36.1486 18.7091 35.4395 18.6915C34.3903 18.7093 33.3596 18.4144 32.4787 17.8443C31.635 17.2934 30.969 16.5097 30.5614 15.5881L31.6003 15.1422C31.9214 15.8812 32.4494 16.5115 33.1208 16.957C33.9448 17.4821 34.9225 17.7125 35.8943 17.6105C36.8661 17.5084 37.7746 17.08 38.4715 16.3951C38.8664 15.9986 39.1774 15.5265 39.3858 15.0071C39.5941 14.4876 39.6957 13.9315 39.6843 13.372V11.3476C39.3423 12.2939 38.7201 13.1135 37.9008 13.6975C36.937 14.363 35.7677 14.6635 34.6025 14.545C33.4373 14.4265 32.3524 13.8969 31.5424 13.0509C30.5875 12.0222 30.075 10.6594 30.1155 9.25641C30.0762 7.85491 30.5886 6.49396 31.5424 5.46634C31.9949 4.97417 32.5471 4.58402 33.1621 4.32185C33.7772 4.05968 34.441 3.9315 35.1095 3.94585C36.1161 3.93263 37.1 4.24547 37.9141 4.83763C38.725 5.41768 39.3419 6.22888 39.6843 7.16518ZM35.3815 13.4968C35.9515 13.5138 36.5189 13.4146 37.0494 13.2053C37.5798 12.9961 38.0622 12.6811 38.4671 12.2796C38.8664 11.8842 39.1805 11.4112 39.3898 10.8896C39.5992 10.3681 39.6994 9.80925 39.6843 9.2475C39.7002 8.68525 39.5999 8.12577 39.3897 7.60406C39.1794 7.08235 38.8638 6.60962 38.4626 6.21543C38.0577 5.81391 37.5754 5.49894 37.0449 5.28967C36.5145 5.08041 35.947 4.98122 35.377 4.99815C34.8291 4.98858 34.2852 5.0926 33.7794 5.30363C33.2737 5.51467 32.8172 5.82816 32.4386 6.22435C32.0442 6.6209 31.7343 7.09319 31.5274 7.61276C31.3205 8.13233 31.2209 8.68841 31.2347 9.2475C31.2195 9.80942 31.3184 10.3686 31.5253 10.8913C31.7322 11.4139 32.0429 11.8892 32.4386 12.2885C32.8192 12.682 33.2772 12.9925 33.7837 13.2005C34.2901 13.4084 34.8341 13.5093 35.3815 13.4968Z" fill="#202023"/>
<path d="M43.1623 9.28765C43.1623 7.86855 43.726 6.50758 44.7295 5.50413C45.7329 4.50068 47.0939 3.93695 48.513 3.93695C49.9321 3.93695 51.293 4.50068 52.2965 5.50413C53.2999 6.50758 53.8637 7.86855 53.8637 9.28765C53.8804 9.99277 53.7521 10.6938 53.4867 11.3473C53.2213 12.0008 52.8245 12.5928 52.3209 13.0866C51.2902 14.0688 49.9211 14.6167 48.4974 14.6167C47.0737 14.6167 45.7045 14.0688 44.6739 13.0866C44.1763 12.5898 43.7856 11.9966 43.5257 11.3433C43.2657 10.69 43.1421 9.99046 43.1623 9.28765ZM45.4809 6.23329C45.0822 6.63376 44.7688 7.11088 44.5596 7.63583C44.3503 8.16079 44.2497 8.72271 44.2636 9.28765C44.2489 9.85069 44.3493 10.4108 44.5586 10.9337C44.7679 11.4566 45.0817 11.9313 45.4809 12.3286C46.2864 13.1149 47.3673 13.5551 48.4929 13.5551C49.6185 13.5551 50.6995 13.1149 51.5049 12.3286C51.9027 11.9304 52.2153 11.4555 52.4238 10.9327C52.6323 10.41 52.7323 9.85027 52.7177 9.28765C52.7315 8.72312 52.6312 8.16162 52.4228 7.63679C52.2144 7.11196 51.9022 6.63459 51.5049 6.23329C50.7023 5.4417 49.6202 4.99791 48.4929 4.99791C47.3656 4.99791 46.2836 5.4417 45.4809 6.23329Z" fill="#202023"/>
<path d="M9.14523 32.8441H0V18.5756H2.26513V30.8242H9.14523V32.8441Z" fill="#202023"/>
<path d="M15.0488 22.2051C16.1525 22.1588 17.2367 22.5065 18.1076 23.186C18.5085 23.5331 18.8241 23.9678 19.0298 24.4566C19.2355 24.9453 19.3258 25.4748 19.2937 26.0041V32.8441H17.149V30.0661C16.5099 32.0548 15.2242 33.0492 13.292 33.0492C12.4737 33.0709 11.6774 32.7826 11.0626 32.2421C10.7687 31.9762 10.5366 31.6492 10.3825 31.2841C10.2285 30.919 10.1562 30.5246 10.1708 30.1286C10.1424 29.6859 10.2265 29.2432 10.4152 28.8417C10.6038 28.4402 10.891 28.093 11.2498 27.8322C12.0642 27.2846 13.0051 26.9545 13.9831 26.8736L16.0075 26.6685C16.77 26.6016 17.149 26.2627 17.149 25.6474C17.1568 25.4148 17.1082 25.1838 17.0072 24.9741C16.9063 24.7645 16.756 24.5824 16.5693 24.4435C16.1267 24.1288 15.5913 23.9718 15.0488 23.9976C14.4674 23.9798 13.8961 24.152 13.4213 24.488C12.9649 24.838 12.6613 25.3508 12.5741 25.9194L10.4517 25.4066C10.5384 24.9344 10.7187 24.4844 10.9822 24.0831C11.2456 23.6818 11.5868 23.3374 11.9856 23.0701C12.8916 22.4697 13.9626 22.1673 15.0488 22.2051ZM13.9831 31.3325C14.3952 31.3384 14.8044 31.2626 15.1871 31.1096C15.5697 30.9565 15.9183 30.7292 16.2126 30.4407C16.5026 30.1798 16.7343 29.8607 16.8926 29.5042C17.0508 29.1477 17.1321 28.7618 17.1311 28.3718V27.7653C16.9706 28.0373 16.5738 28.2112 15.9495 28.2781L13.9653 28.5234C13.5211 28.5585 13.0944 28.7125 12.7302 28.9693C12.5845 29.0836 12.4681 29.231 12.3905 29.3993C12.313 29.5675 12.2766 29.7518 12.2843 29.9368C12.277 30.1238 12.3135 30.3099 12.3909 30.4802C12.4683 30.6505 12.5845 30.8004 12.7302 30.9178C13.0858 31.1996 13.5296 31.3465 13.9831 31.3325Z" fill="#202023"/>
<path d="M21.4964 28.5145V22.4147H23.6322V28.5145C23.6186 28.8572 23.677 29.199 23.8038 29.5177C23.9305 29.8365 24.1227 30.1251 24.3679 30.3649C24.8845 30.8186 25.5486 31.0688 26.2362 31.0688C26.9238 31.0688 27.5878 30.8186 28.1045 30.3649C28.3497 30.1251 28.5419 29.8365 28.6686 29.5177C28.7953 29.199 28.8538 28.8572 28.8402 28.5145V22.4147H30.9849V28.5145C31.005 29.1228 30.8962 29.7284 30.6657 30.2917C30.4351 30.855 30.0881 31.3632 29.6473 31.7829C28.7254 32.6384 27.502 33.0938 26.2451 33.0492C24.9851 33.0916 23.7592 32.6349 22.834 31.7784C22.3929 31.3599 22.0456 30.8526 21.815 30.29C21.5844 29.7273 21.4758 29.1222 21.4964 28.5145Z" fill="#202023"/>
<path d="M35.4617 22.4147V25.1703C35.805 23.9351 36.3535 23.0969 37.0669 22.6599C37.4373 22.4423 37.8476 22.3014 38.2734 22.2455C38.6993 22.1896 39.1321 22.2198 39.5461 22.3344V24.3766C39.0721 24.2121 38.5679 24.1532 38.0688 24.2041C37.5697 24.2549 37.0877 24.4142 36.6567 24.6709C36.2728 24.91 35.9596 25.2472 35.7496 25.6477C35.5395 26.0483 35.4401 26.4976 35.4617 26.9494V32.844H33.3214V22.4147H35.4617Z" fill="#202023"/>
<path d="M45.2847 22.2051C46.0553 22.1801 46.8217 22.3272 47.5283 22.6357C48.2348 22.9443 48.8637 23.4065 49.3691 23.9887C49.886 24.5775 50.2687 25.2717 50.4904 26.0232C50.7122 26.7747 50.7677 27.5655 50.6532 28.3406H42.0163C42.145 29.142 42.5582 29.8701 43.1801 30.3917C43.8163 30.9169 44.6204 31.1955 45.4452 31.1765C46.0898 31.1877 46.7241 31.0145 47.2734 30.6771C47.8064 30.3539 48.2412 29.8914 48.5308 29.3394L50.3143 30.1375C49.8607 31.0126 49.176 31.7466 48.3346 32.26C47.4428 32.8001 46.4163 33.0768 45.3739 33.0581C44.6517 33.071 43.9342 32.9396 43.2635 32.6717C42.5928 32.4037 41.9823 32.0045 41.4679 31.4975C40.9489 30.9997 40.5393 30.3993 40.2652 29.7345C39.9912 29.0696 39.8586 28.355 39.876 27.6361C39.8652 26.9199 39.9983 26.2088 40.2674 25.545C40.5365 24.8812 40.9361 24.2782 41.4426 23.7717C41.9491 23.2652 42.5521 22.8656 43.2159 22.5965C43.8797 22.3274 44.5908 22.1943 45.307 22.2051H45.2847ZM45.2847 24.0645C44.5415 24.0536 43.8193 24.3117 43.2514 24.7913C42.6703 25.2765 42.2645 25.9392 42.0966 26.6774H48.5085C48.3525 25.9397 47.9538 25.2756 47.3759 24.7913C46.7911 24.3016 46.0472 24.0431 45.2847 24.0645Z" fill="#202023"/>
<path d="M58.5946 22.2051C59.1402 22.1888 59.6828 22.2921 60.1842 22.5078C60.6857 22.7235 61.1339 23.0463 61.4973 23.4536C62.2591 24.3266 62.6593 25.4571 62.6165 26.615V32.8574H60.4762V26.9449C60.487 26.5777 60.4239 26.212 60.2906 25.8696C60.1574 25.5272 59.9566 25.2151 59.7004 24.9518C59.4508 24.6964 59.1515 24.495 58.8209 24.36C58.4903 24.225 58.1356 24.1593 57.7786 24.167C57.394 24.1525 57.0104 24.2145 56.65 24.3492C56.2895 24.4839 55.9593 24.6887 55.6784 24.9518C55.407 25.2066 55.1924 25.5158 55.0487 25.8593C54.905 26.2028 54.8355 26.5727 54.8446 26.9449V32.8441H52.7043V22.4147H54.8446V25.09C55.0893 24.2531 55.5841 23.5109 56.2626 22.9631C56.9298 22.4502 57.7533 22.1825 58.5946 22.2051Z" fill="#202023"/>
<path d="M65.8447 24.3097H63.6152V22.4147H65.8447V19.0259L67.985 18.3526V22.4147H70.9279V24.3142H67.985V29.1298C67.9637 29.379 67.9921 29.6299 68.0686 29.8679C68.1452 30.106 68.2683 30.3265 68.4309 30.5165C68.6177 30.6771 68.8344 30.7992 69.0685 30.8757C69.3027 30.9523 69.5497 30.9817 69.7953 30.9624H70.9412V32.8619H69.7819C68.4353 32.8619 67.4425 32.5483 66.8034 31.9211C66.1613 31.2968 65.8447 30.3382 65.8447 29.0451V24.3097Z" fill="#202023"/>
<path d="M73.0593 20.3502C72.9339 20.2277 72.8343 20.0814 72.7663 19.9198C72.6982 19.7582 72.6632 19.5847 72.6632 19.4094C72.6632 19.2341 72.6982 19.0605 72.7663 18.899C72.8343 18.7374 72.9339 18.5911 73.0593 18.4685C73.1847 18.3454 73.3331 18.2481 73.496 18.1823C73.659 18.1165 73.8333 18.0835 74.0091 18.0851C74.3638 18.0851 74.7041 18.226 74.9549 18.4769C75.2058 18.7277 75.3467 19.068 75.3467 19.4228C75.3467 19.7775 75.2058 20.1178 74.9549 20.3686C74.7041 20.6195 74.3638 20.7604 74.0091 20.7604C73.8314 20.7585 73.656 20.7213 73.4929 20.6508C73.3299 20.5804 73.1825 20.4782 73.0593 20.3502ZM75.0703 32.8352H72.93V22.4147H75.0703V32.8352Z" fill="#202023"/>
<path d="M83.3817 22.2051C83.9274 22.1885 84.4701 22.2917 84.9716 22.5074C85.4731 22.7231 85.9212 23.0461 86.2845 23.4536C87.043 24.3279 87.44 25.4583 87.3948 26.615V32.8574H85.2545V26.9449C85.2653 26.5777 85.2022 26.212 85.0689 25.8696C84.9356 25.5272 84.7349 25.2151 84.4786 24.9518C84.2292 24.6962 83.9299 24.4946 83.5993 24.3596C83.2687 24.2246 82.9139 24.1591 82.5568 24.167C82.1723 24.1525 81.7887 24.2145 81.4282 24.3492C81.0677 24.4839 80.7375 24.6887 80.4567 24.9518C80.1876 25.2078 79.9755 25.5175 79.8342 25.861C79.6928 26.2044 79.6254 26.5737 79.6363 26.9449V32.8441H77.496V22.4147H79.6363V25.09C79.8827 24.2527 80.379 23.5107 81.0586 22.9631C81.7226 22.4505 82.5432 22.1828 83.3817 22.2051Z" fill="#202023"/>
<path d="M91.6129 29.103C91.2439 29.1075 90.8846 29.2214 90.5804 29.4303C90.2762 29.6391 90.0409 29.9336 89.9042 30.2763C89.7675 30.6191 89.7356 30.9947 89.8126 31.3556C89.8896 31.7164 90.072 32.0463 90.3366 32.3035C90.6012 32.5606 90.9363 32.7334 91.2992 32.8C91.6621 32.8665 92.0367 32.8239 92.3753 32.6774C92.714 32.5309 93.0016 32.2872 93.2016 31.9771C93.4017 31.6671 93.5052 31.3046 93.499 30.9357C93.4955 30.6915 93.444 30.4504 93.3473 30.2261C93.2506 30.0019 93.1107 29.7988 92.9355 29.6287C92.7604 29.4585 92.5534 29.3245 92.3265 29.2343C92.0995 29.1441 91.8571 29.0995 91.6129 29.103ZM91.6664 32.2243C91.4165 32.2304 91.1705 32.1622 90.9594 32.0283C90.7484 31.8945 90.5818 31.7009 90.4809 31.4723C90.38 31.2436 90.3493 30.9902 90.3926 30.744C90.4359 30.4979 90.5514 30.2701 90.7243 30.0897C90.8972 29.9092 91.1199 29.7842 91.3639 29.7305C91.608 29.6767 91.8626 29.6966 92.0953 29.7877C92.328 29.8788 92.5285 30.037 92.6712 30.2421C92.814 30.4473 92.8926 30.6902 92.897 30.9401C92.9006 31.1052 92.8716 31.2695 92.8116 31.4234C92.7517 31.5773 92.662 31.7179 92.5478 31.8372C92.4335 31.9564 92.2968 32.052 92.1456 32.1184C91.9944 32.1848 91.8315 32.2208 91.6664 32.2243Z" fill="#202023"/>
</svg>
